<svg id="Layer_3" enable-background="new 0 0 64 64" height="512" viewBox="0 0 64 64" width="512" xmlns="http://www.w3.org/2000/svg"><g><path d="m16 12v-10h30l8 8v46h-10" fill="#d4d9f0"/><path d="m38.273 47h15.727v-37l-8-8h-25v17.857" fill="#e2e7f6"/><path d="m46 2v8h8" fill="#d4d9f0"/><path d="m40 12h-26c-2.209 0-4 1.791-4 4v42c0 2.209 1.791 4 4 4h26c2.209 0 4-1.791 4-4v-42c0-2.209-1.791-4-4-4z" fill="#2458ad"/><path d="m30 50h-16c-1.105 0-2-.895-2-2v-17c0-1.105.895-2 2-2h16c1.105 0 2 .895 2 2v17c0 1.105-.895 2-2 2z" fill="#3279ea"/><path d="m14 16h26v12h-26z" fill="#d4d9f0"/><g fill="#fff"><path d="m14 16v10h20c1.105 0 2-.895 2-2v-8z"/><path d="m14 52h6v6h-6z"/><path d="m24 52h6v6h-6z"/><path d="m14 42h6v6h-6z"/><path d="m24 42h6v6h-6z"/><path d="m14 32h16v6h-16z"/><path d="m34 32h6v6h-6z"/><path d="m34 42h6v16h-6z"/></g><g><path d="m26.757 18h8.485v2h-8.485z" fill="#a9adcc" transform="matrix(.707 -.707 .707 .707 -4.355 27.485)"/></g><g><path d="m26.757 24h8.485v2h-8.485z" fill="#a9adcc" transform="matrix(.707 -.707 .707 .707 -8.598 29.243)"/></g><g><path d="m19 5h2v2h-2z" fill="#a9adcc"/></g><g><path d="m23 5h20v2h-20z" fill="#a9adcc"/></g></g></svg>